<?xml version="1.0" encoding="UTF-8" standalone="no"?>
<svg width="97px" height="47px" viewBox="0 0 97 47" version="1.1" xmlns="http://www.w3.org/2000/svg" xmlns:xlink="http://www.w3.org/1999/xlink">
    <!-- Generator: Sketch 50 (54983) - http://www.bohemiancoding.com/sketch -->
    <title>EwD</title>
    <desc>Created with Sketch.</desc>
    <defs></defs>
    <g id="Page-1" stroke="none" stroke-width="1" fill="none" fill-rule="evenodd">
        <g id="logo-svg" transform="translate(-380.000000, -80.000000)" fill="#FFFFFF">
            <path d="M380,81.2046958 L401.825,81.2046958 L401.825,86.8209873 L386.365625,86.8209873 L386.365625,94.7647511 L397.732813,94.7647511 L397.732813,100.43164 L386.365625,100.43164 L386.365625,109.235556 L402.986979,109.235556 L402.986979,114.953042 L380,114.953042 L380,81.2046958 Z M405.614062,103.269903 L412.181771,103.269903 L416.728646,119.764597 L421.730208,103.269903 L426.731771,103.269903 L431.783854,119.764597 L436.280208,103.269903 L442.544792,103.269903 L434.511979,127 L428.752604,127 L423.902604,112.680986 L419.204167,127 L413.646875,127 L405.614062,103.269903 Z M446.535937,80 L459.115625,80 C461.742721,80 464.150857,80.3373114 466.340104,81.0119444 C468.529351,81.6865774 470.415443,82.7153773 471.998437,84.0983749 C473.581432,85.4813726 474.81076,87.2522576 475.686458,89.4110832 C476.562157,91.5699088 477,94.1166101 477,97.0512636 C477,99.8509906 476.553737,102.288066 475.661198,104.362562 C474.768659,106.437059 473.522491,108.174213 471.922656,109.574076 C470.322822,110.973939 468.42831,112.019605 466.239062,112.711104 C464.049815,113.402603 461.65852,113.748347 459.065104,113.748347 L446.535937,113.748347 L446.535937,80 Z M458.270032,108.912698 C462.397306,108.912698 465.54702,107.915593 467.719269,105.921354 C469.891518,103.927115 470.977627,101.008318 470.977627,97.1648749 C470.977627,93.357691 469.972976,90.3482478 467.963646,88.1364553 C465.954315,85.9246627 462.723143,84.818783 458.270032,84.818783 L452.242071,84.818783 L452.242071,108.912698 L458.270032,108.912698 Z" id="EwD"></path>
        </g>
    </g>
</svg>