<svg xmlns="http://www.w3.org/2000/svg" width="19.345" height="19.36" viewBox="0 0 38.69 38.72">
  <metadata><?xpacket begin="﻿" id="W5M0MpCehiHzreSzNTczkc9d"?>
<x:xmpmeta xmlns:x="adobe:ns:meta/" x:xmptk="Adobe XMP Core 5.6-c140 79.160451, 2017/05/06-01:08:21        ">
   <rdf:RDF xmlns:rdf="http://www.w3.org/1999/02/22-rdf-syntax-ns#">
      <rdf:Description rdf:about=""/>
   </rdf:RDF>
</x:xmpmeta>
                                                                                                    
                                                                                                    
                                                                                                    
                                                                                                    
                                                                                                    
                                                                                                    
                                                                                                    
                                                                                                    
                                                                                                    
                                                                                                    
                                                                                                    
                                                                                                    
                                                                                                    
                                                                                                    
                                                                                                    
                                                                                                    
                                                                                                    
                                                                                                    
                                                                                                    
                                                                                                    
                           
<?xpacket end="w"?></metadata>
<defs>
    <style>
      .instagram {
        fill: #fff;
        fill-rule: evenodd;
      }
    </style>
  </defs>
  <path id="instagram" class="instagram" d="M3857.97,6322.53c5.16,0,5.77.02,7.81,0.11a10.658,10.658,0,0,1,3.59.67,6.457,6.457,0,0,1,3.67,3.67,10.728,10.728,0,0,1,.66,3.59c0.1,2.05.12,2.66,0.12,7.83s-0.02,5.77-.12,7.82a10.728,10.728,0,0,1-.66,3.59,6.457,6.457,0,0,1-3.67,3.67,10.658,10.658,0,0,1-3.59.67c-2.04.09-2.65,0.11-7.81,0.11s-5.78-.02-7.82-0.11a10.658,10.658,0,0,1-3.59-.67,5.984,5.984,0,0,1-2.22-1.45,5.9,5.9,0,0,1-1.45-2.22,10.728,10.728,0,0,1-.66-3.59c-0.1-2.05-.11-2.66-0.11-7.82s0.01-5.78.11-7.83a10.728,10.728,0,0,1,.66-3.59,5.9,5.9,0,0,1,1.45-2.22,5.984,5.984,0,0,1,2.22-1.45,10.658,10.658,0,0,1,3.59-.67c2.04-.09,2.65-0.11,7.82-0.11m0-3.49c-5.26,0-5.91.02-7.98,0.12a14.059,14.059,0,0,0-4.69.9,9.314,9.314,0,0,0-3.42,2.23,9.431,9.431,0,0,0-2.23,3.43,14.071,14.071,0,0,0-.9,4.7c-0.1,2.06-.12,2.72-0.12,7.98s0.02,5.91.12,7.97a14.018,14.018,0,0,0,.9,4.7,9.884,9.884,0,0,0,5.65,5.66,14.059,14.059,0,0,0,4.69.9c2.07,0.1,2.72.12,7.98,0.12s5.91-.02,7.97-0.12a14.005,14.005,0,0,0,4.69-.9,9.314,9.314,0,0,0,3.42-2.23,9.423,9.423,0,0,0,2.24-3.43,14.536,14.536,0,0,0,.9-4.7c0.09-2.06.11-2.72,0.11-7.97s-0.02-5.92-.11-7.98a14.593,14.593,0,0,0-.9-4.7,9.592,9.592,0,0,0-2.24-3.43,9.314,9.314,0,0,0-3.42-2.23,14.005,14.005,0,0,0-4.69-.9c-2.06-.1-2.72-0.12-7.97-0.12h0Zm0,9.42a9.935,9.935,0,1,0,9.92,9.94A9.931,9.931,0,0,0,3857.97,6328.46Zm0,16.39a6.455,6.455,0,1,1,6.44-6.45A6.453,6.453,0,0,1,3857.97,6344.85Zm12.64-16.79a2.32,2.32,0,1,1-2.32-2.32A2.324,2.324,0,0,1,3870.61,6328.06Z" transform="translate(-3838.62 -6319.03)"/>
</svg>
