<svg xmlns="http://www.w3.org/2000/svg" width="19.5" height="19.5" viewBox="0 0 39 39">
  <metadata><?xpacket begin="﻿" id="W5M0MpCehiHzreSzNTczkc9d"?>
<x:xmpmeta xmlns:x="adobe:ns:meta/" x:xmptk="Adobe XMP Core 5.6-c140 79.160451, 2017/05/06-01:08:21        ">
   <rdf:RDF xmlns:rdf="http://www.w3.org/1999/02/22-rdf-syntax-ns#">
      <rdf:Description rdf:about=""/>
   </rdf:RDF>
</x:xmpmeta>
<?xpacket end="w"?></metadata>
<defs>
    <style>
      .linkedin {
        fill: #fff;
        fill-rule: evenodd;
      }
    </style>
  </defs>
  <path id="linkedin" class="linkedin" d="M4012.63,6332.95h8.09v26.04h-8.09v-26.04Zm4.04-12.95a4.7,4.7,0,1,1-4.68,4.69,4.69,4.69,0,0,1,4.68-4.69m9.12,12.95h7.75v3.55h0.11a8.51,8.51,0,0,1,7.65-4.2c8.19,0,9.7,5.39,9.7,12.4v14.29h-8.08v-12.66c0-3.03-.06-6.91-4.2-6.91-4.21,0-4.85,3.29-4.85,6.69v12.88h-8.08v-26.04Z" transform="translate(-4012 -6320)"/>
</svg>
