<svg xmlns="http://www.w3.org/2000/svg" width="16" height="13" viewBox="0 0 32 26">
  <metadata><?xpacket begin="﻿" id="W5M0MpCehiHzreSzNTczkc9d"?>
<x:xmpmeta xmlns:x="adobe:ns:meta/" x:xmptk="Adobe XMP Core 5.6-c140 79.160451, 2017/05/06-01:08:21        ">
   <rdf:RDF xmlns:rdf="http://www.w3.org/1999/02/22-rdf-syntax-ns#">
      <rdf:Description rdf:about=""/>
   </rdf:RDF>
</x:xmpmeta>
                                                                                                    
                                                                                                    
                                                                                                    
                                                                                                    
                                                                                                    
                                                                                                    
                                                                                                    
                                                                                                    
                                                                                                    
                                                                                                    
                                                                                                    
                                                                                                    
                                                                                                    
                                                                                                    
                                                                                                    
                                                                                                    
                                                                                                    
                                                                                                    
                                                                                                    
                                                                                                    
                           
<?xpacket end="w"?></metadata>
<defs>
    <style>
      .icon-phone {
        fill: #fff;
        fill-rule: evenodd;
      }
    </style>
  </defs>
  <path id="phone" class="icon-phone" d="M2565.06,70.555a6.287,6.287,0,0,1-6.3,6.423,6.381,6.381,0,0,1-6.42-6.423,6.478,6.478,0,0,1,6.42-6.535A6.384,6.384,0,0,1,2565.06,70.555Zm1.66-7.1,7.97,2.366V61.317c0-11.379-31.98-11.379-31.98,0a30.841,30.841,0,0,0,.11,4.507l7.86-2.366V61.542c0-5.972,16.04-5.972,16.04,0v1.915Zm-7.96,11.156a4,4,0,0,0,3.98-4.057,4.1,4.1,0,0,0-3.98-4.168,4.2,4.2,0,0,0-4.1,4.168A4.1,4.1,0,0,0,2558.76,74.612Zm4.31-14.873a36.826,36.826,0,0,0-8.63,0c-1.22.225-1.77,5.069-1.77,5.069l-7.74,7.212v6.76h27.54v-6.76l-7.63-7.212S2564.29,59.965,2563.07,59.739Z" transform="translate(-2542.69 -52.781)"/>
</svg>
