<svg xmlns="http://www.w3.org/2000/svg" width="14.015" height="15" viewBox="0 0 28.03 30">
  <metadata><?xpacket begin="﻿" id="W5M0MpCehiHzreSzNTczkc9d"?>
<x:xmpmeta xmlns:x="adobe:ns:meta/" x:xmptk="Adobe XMP Core 5.6-c140 79.160451, 2017/05/06-01:08:21        ">
   <rdf:RDF xmlns:rdf="http://www.w3.org/1999/02/22-rdf-syntax-ns#">
      <rdf:Description rdf:about=""/>
   </rdf:RDF>
</x:xmpmeta>
                                                                                                    
                                                                                                    
                                                                                                    
                                                                                                    
                                                                                                    
                                                                                                    
                                                                                                    
                                                                                                    
                                                                                                    
                                                                                                    
                                                                                                    
                                                                                                    
                                                                                                    
                                                                                                    
                                                                                                    
                                                                                                    
                                                                                                    
                                                                                                    
                                                                                                    
                                                                                                    
                           
<?xpacket end="w"?></metadata>
<defs>
    <style>
      .icon-search {
        fill: #fff;
        fill-rule: evenodd;
      }
    </style>
  </defs>
  <path id="search" class="icon-search" d="M2880.65,78.4l-5.23-5.541a14.206,14.206,0,0,0-.94-17.92,12,12,0,0,0-17.79,0,14.163,14.163,0,0,0,0,19.069,12.256,12.256,0,0,0,8.92,3.942,12.065,12.065,0,0,0,7.85-2.945l5.18,5.542a1.308,1.308,0,0,0,.98.449,1.22,1.22,0,0,0,.98-0.449A1.637,1.637,0,0,0,2880.65,78.4Zm-5.23-13.927a10.622,10.622,0,0,1-2.9,7.388,9.581,9.581,0,0,1-6.91,3.095,9.3,9.3,0,0,1-6.91-3.095,10.942,10.942,0,0,1-2.9-7.388,10.619,10.619,0,0,1,2.9-7.388,9.491,9.491,0,0,1,6.91-3.1,9.31,9.31,0,0,1,6.91,3.1A10.849,10.849,0,0,1,2875.42,64.478Z" transform="translate(-2853 -51)"/>
</svg>
