<svg xmlns="http://www.w3.org/2000/svg" width="19" height="16" viewBox="0 0 38 32">
  <metadata><?xpacket begin="﻿" id="W5M0MpCehiHzreSzNTczkc9d"?>
<x:xmpmeta xmlns:x="adobe:ns:meta/" x:xmptk="Adobe XMP Core 5.6-c140 79.160451, 2017/05/06-01:08:21        ">
   <rdf:RDF xmlns:rdf="http://www.w3.org/1999/02/22-rdf-syntax-ns#">
      <rdf:Description rdf:about=""/>
   </rdf:RDF>
</x:xmpmeta>
<?xpacket end="w"?></metadata>
<defs>
    <style>
      .twitter {
        fill: #fff;
        fill-rule: evenodd;
      }
    </style>
  </defs>
  <path id="twitter" class="twitter" d="M1263.09,3448.13a15.084,15.084,0,0,1-4.48,1.27,8.085,8.085,0,0,0,3.43-4.47,15.217,15.217,0,0,1-4.95,1.96,7.66,7.66,0,0,0-5.69-2.55,8.094,8.094,0,0,0-7.59,9.92,21.88,21.88,0,0,1-16.07-8.44,8.266,8.266,0,0,0-1.06,4.06,8.178,8.178,0,0,0,3.47,6.73,7.7,7.7,0,0,1-3.53-1.01v0.1a8.02,8.02,0,0,0,6.25,7.92,7.687,7.687,0,0,1-2.05.28,7.961,7.961,0,0,1-1.47-.14,7.846,7.846,0,0,0,7.28,5.61,15.264,15.264,0,0,1-9.68,3.46,14.29,14.29,0,0,1-1.86-.12,21.46,21.46,0,0,0,11.95,3.64c14.34,0,22.18-12.32,22.18-22.99,0-.35-0.01-0.7-0.02-1.05A16.321,16.321,0,0,0,1263.09,3448.13Z" transform="translate(-1225.09 -3444.34)"/>
</svg>
