<svg xmlns="http://www.w3.org/2000/svg" width="27.06" height="19.36" viewBox="0 0 54.12 38.72">
  <metadata><?xpacket begin="﻿" id="W5M0MpCehiHzreSzNTczkc9d"?>
<x:xmpmeta xmlns:x="adobe:ns:meta/" x:xmptk="Adobe XMP Core 5.6-c140 79.160451, 2017/05/06-01:08:21        ">
   <rdf:RDF xmlns:rdf="http://www.w3.org/1999/02/22-rdf-syntax-ns#">
      <rdf:Description rdf:about=""/>
   </rdf:RDF>
</x:xmpmeta>
                     
<?xpacket end="w"?></metadata>
<defs>
    <style>
      .youtube {
        fill: #fff;
        fill-rule: evenodd;
      }
    </style>
  </defs>
  <path id="youtube" class="youtube" d="M3970.72,6325.04a6.864,6.864,0,0,0-4.79-4.88c-4.22-1.16-21.15-1.16-21.15-1.16s-16.93,0-21.15,1.16a6.847,6.847,0,0,0-4.79,4.88c-1.13,4.32-1.13,13.32-1.13,13.32s0,8.99,1.13,13.3a6.843,6.843,0,0,0,4.79,4.89c4.22,1.16,21.15,1.16,21.15,1.16s16.93,0,21.15-1.16a6.861,6.861,0,0,0,4.79-4.89c1.13-4.31,1.13-13.3,1.13-13.3S3971.85,6329.36,3970.72,6325.04Zm-31.35,21.61,14.06-8.29-14.06-8.3v16.59Z" transform="translate(-3917.72 -6319)"/>
</svg>
